<?xml version="1.0" encoding="UTF-8"?> <svg xmlns="http://www.w3.org/2000/svg" width="3893" height="1259" viewBox="0 0 3893 1259" fill="none"><g clip-path="url(#clip0_522_571)"><path d="M457.529 47.5284C214.971 63.9624 18.2065 259.693 1.25548 501.993C-4.08297 573.819 6.41649 645.942 32.0121 713.265C57.6076 780.588 97.6748 841.469 149.383 891.607C157.004 898.891 166.491 903.926 176.795 906.155C187.099 908.384 197.819 907.721 207.77 904.237H208.139C275.167 880.787 351.207 854.492 491.801 854.492C635.238 854.492 709.098 880.787 774.354 903.868C774.724 903.868 774.724 903.868 775.056 904.237C785.051 907.833 795.855 908.556 806.24 906.324C816.625 904.091 826.177 898.993 833.812 891.607C906.351 821.466 955.557 730.708 974.755 631.647C993.953 532.586 982.213 430.017 941.129 337.855C900.044 245.694 831.603 168.402 745.092 116.465C658.58 64.5279 558.186 40.4607 457.529 47.5284ZM491.801 778.748C444.248 778.756 397.761 764.661 358.219 738.246C318.677 711.832 287.856 674.284 269.655 630.352C251.454 586.421 246.69 538.078 255.965 491.438C265.241 444.799 288.139 401.957 321.764 368.332C355.389 334.707 398.23 311.809 444.87 302.534C491.509 293.258 539.852 298.022 583.784 316.224C627.716 334.425 665.263 365.245 691.678 404.787C718.092 444.329 732.187 490.816 732.18 538.369C732.141 602.113 706.804 663.235 661.733 708.313C616.663 753.39 555.545 778.736 491.801 778.785V778.748Z" fill="#41B1E6"></path><path d="M491.8 1171.65C600.633 1171.65 658.282 1191.81 719.217 1213.45C778.305 1234.36 839.573 1256 953.835 1258.88C957.069 1259.01 960.294 1258.46 963.307 1257.28C966.32 1256.1 969.055 1254.3 971.34 1252.01C973.667 1249.76 975.52 1247.06 976.789 1244.08C978.057 1241.1 978.716 1237.89 978.726 1234.65V1044.06C978.746 1037.71 976.258 1031.61 971.804 1027.09C967.35 1022.56 961.29 1019.98 954.943 1019.9C858.001 1016.65 804.673 997.56 748.133 977.729C685.795 955.755 621.647 932.674 491.541 932.674C363.947 932.674 297.62 955.755 233.472 978.098C175.824 997.93 121.758 1017.02 28.0292 1019.9C21.7029 1020.05 15.6814 1022.65 11.2415 1027.16C6.80163 1031.67 4.29247 1037.73 4.24609 1044.06V1234.65C4.27407 1237.88 4.94124 1241.07 6.20901 1244.03C7.47678 1247 9.32001 1249.69 11.6321 1251.94C13.9407 1254.25 16.7064 1256.05 19.7524 1257.24C22.7983 1258.42 26.0576 1258.95 29.3218 1258.81C144.286 1255.56 205.184 1233.91 263.94 1213.01C325.06 1191.81 382.228 1171.65 491.8 1171.65Z" fill="#41B1E6"></path><path d="M1815.23 276.017C1764.49 248.867 1707.7 234.982 1650.16 235.652C1587.78 235.652 1531.57 249.353 1483.27 276.275C1435.85 302.2 1396.18 340.256 1368.3 386.549C1340.29 433.608 1325.83 487.488 1326.5 542.247C1325.87 597.891 1340.59 652.631 1369.04 700.457C1397.07 747.367 1436.95 786.074 1484.67 812.688C1533.35 840.053 1588.85 854.124 1650.49 854.124C1712.13 854.124 1767.59 840.053 1816.27 812.688C1863.82 786.186 1903.68 747.811 1931.97 701.306C1960.08 654.811 1974.48 601.594 1974.48 542.506C1975.04 487.446 1960.32 433.308 1931.97 386.106C1903.55 339.676 1863.25 301.672 1815.23 276.017ZM1772.32 620.577C1761.5 642.478 1744.28 660.574 1722.95 672.464C1700.5 684.301 1675.51 690.488 1650.14 690.488C1624.76 690.488 1599.77 684.301 1577.33 672.464C1555.96 660.388 1538.56 642.361 1527.25 620.577C1514.97 596.742 1508.78 570.238 1509.23 543.429C1508.94 517.687 1515.14 492.287 1527.25 469.569C1538.76 447.917 1556.11 429.928 1577.33 417.645C1599.54 405.155 1624.67 398.783 1650.16 399.179C1675.46 398.608 1700.42 405.091 1722.24 417.903C1743.07 430.132 1760.15 447.835 1771.62 469.089C1783.85 492.027 1790.05 517.696 1789.64 543.688C1790.12 570.335 1784.18 596.707 1772.32 620.577Z" fill="white"></path><path d="M2542.54 259.694C2542.53 256.827 2541.39 254.08 2539.36 252.053C2537.33 250.026 2534.59 248.883 2531.72 248.873H2051.29C2048.43 248.883 2045.68 250.026 2043.65 252.053C2041.63 254.08 2040.48 256.827 2040.47 259.694V388.359C2040.48 391.226 2041.63 393.972 2043.65 395.999C2045.68 398.026 2048.43 399.17 2051.29 399.179H2286.65L2025.33 728.339C2021.7 732.974 2019.68 738.665 2019.57 744.552V829.491C2019.58 832.358 2020.72 835.105 2022.75 837.132C2024.78 839.159 2027.52 840.302 2030.39 840.312H2523.78C2526.65 840.302 2529.39 839.159 2531.42 837.132C2533.45 835.105 2534.59 832.358 2534.6 829.491V700.937C2534.59 698.07 2533.45 695.323 2531.42 693.296C2529.39 691.269 2526.65 690.126 2523.78 690.116H2273.69L2537.19 361.067C2540.87 356.323 2542.9 350.495 2542.95 344.486V259.694H2542.54Z" fill="white"></path><path d="M3208.21 593.544C3210.4 584.549 3212.01 575.42 3213.01 566.216C3214.08 554.324 3214.82 542.802 3214.82 531.612C3214.82 474.333 3201.86 422.779 3175.89 378.093C3150.75 334.377 3114.25 298.267 3070.27 273.58C3025.96 248.689 2973.33 235.727 2914.61 235.727C2858.03 235.053 2802.2 248.819 2752.41 275.722C2705.5 301.706 2666.41 339.8 2639.22 386.033C2611.44 433.818 2597.13 488.235 2597.79 543.504C2597.79 603.331 2612.23 657.397 2640.33 704.261C2668.37 751.066 2708.77 789.225 2757.1 814.535C2806.37 840.793 2863.65 854.272 2927.83 854.272C2975.01 854.833 3021.86 846.398 3065.88 829.418C3102.48 814.673 3135.34 791.966 3162.08 762.944C3163.9 760.93 3164.84 758.278 3164.7 755.571C3164.56 752.863 3163.36 750.322 3161.34 748.504L3077.73 665.928C3076.81 664.954 3075.71 664.172 3074.49 663.626C3073.27 663.08 3071.95 662.781 3070.61 662.747C3069.27 662.713 3067.94 662.943 3066.69 663.426C3065.44 663.908 3064.3 664.633 3063.33 665.558C3047.66 681.153 3029.21 693.679 3008.93 702.489C2983.21 713.257 2955.57 718.661 2927.69 718.369C2894.89 718.369 2866.05 711.167 2841.9 697.466C2817.6 683.253 2798.03 662.184 2785.65 636.901C2781.61 628.567 2778.23 619.922 2775.57 611.049L2773.8 604.956L3197.61 602.777C3200.13 602.564 3202.51 601.554 3204.42 599.894C3206.32 598.234 3207.65 596.01 3208.21 593.544ZM2773.95 482.532L2775.72 476.401C2778.2 468.286 2781.21 460.341 2784.73 452.618C2796.36 428.183 2814.43 407.374 2836.99 392.422C2859.33 378.019 2886.36 370.818 2916.64 370.818C2944.74 370.818 2968.89 377.305 2989.1 390.28C3009.45 403.593 3025.38 422.657 3034.86 445.048C3038.95 454.852 3042.21 464.982 3044.61 475.33L3046.05 481.092L2773.95 482.532Z" fill="white"></path><path d="M3881.45 840.422C3884.31 840.412 3887.05 839.268 3889.08 837.24C3891.1 835.212 3892.23 832.465 3892.23 829.602V460.926C3892.49 421.643 3882.43 382.981 3863.06 348.806C3844.16 314.932 3816.55 286.719 3783.1 267.079C3748.25 246.677 3708.48 236.205 3668.1 236.796C3625.76 236.209 3583.93 245.984 3546.23 265.27C3530.22 273.555 3515.43 283.993 3502.25 296.291L3494.31 303.677V259.693C3494.3 256.826 3493.15 254.08 3491.13 252.053C3489.1 250.026 3486.35 248.882 3483.49 248.873H3323.8C3320.95 248.911 3318.23 250.067 3316.23 252.091C3314.23 254.115 3313.1 256.845 3313.09 259.693V829.602C3313.1 832.468 3314.24 835.215 3316.27 837.242C3318.3 839.269 3321.04 840.412 3323.91 840.422H3483.56C3486.43 840.422 3489.18 839.282 3491.21 837.253C3493.24 835.224 3494.38 832.471 3494.38 829.602V502.732C3493.92 482.894 3498.92 463.311 3508.82 446.117C3518.06 430.078 3531.5 416.872 3547.71 407.931C3564.7 398.712 3583.77 393.995 3603.1 394.23C3633.72 394.23 3660.05 404.312 3680.66 424.513C3701.27 444.714 3711.64 471.008 3711.64 502.732V829.602C3711.65 832.468 3712.8 835.215 3714.82 837.242C3716.85 839.269 3719.6 840.412 3722.46 840.422H3881.45Z" fill="white"></path><path d="M1380.56 1178.15V1056.28H1359.29V1024.56H1380.56V1014.85C1380.32 1002.87 1382.53 990.963 1387.06 979.872C1391.03 970.683 1397.52 962.808 1405.79 957.16C1414.26 951.696 1424.19 948.928 1434.26 949.22C1441.07 949.15 1447.85 950.007 1454.43 951.768C1461.27 953.461 1467.92 955.875 1474.26 958.97L1466.21 990.361C1459.37 986.559 1451.68 984.575 1443.86 984.6C1440.78 984.411 1437.69 984.967 1434.86 986.22C1432.03 987.473 1429.55 989.387 1427.61 991.801C1424.04 996.479 1422.25 1003.69 1422.22 1013.44V1024.52H1461.89V1056.24H1422.37V1178.11L1380.56 1178.15Z" fill="#41B1E6"></path><path d="M1490.84 992.871V952.248H1531.94V992.871H1490.84ZM1490.84 1178.15V1015.95H1531.94V1178.15H1490.84Z" fill="#41B1E6"></path><path d="M1662.75 1169.84C1658.53 1171.78 1654.2 1173.47 1649.79 1174.9C1644.65 1176.82 1639.35 1178.26 1633.94 1179.22C1628.24 1180.36 1622.44 1180.96 1616.62 1181.03C1609.38 1181.1 1602.19 1179.74 1595.46 1177.04C1589.12 1174.55 1583.7 1170.15 1579.95 1164.45C1575.77 1157.64 1573.76 1149.72 1574.19 1141.74V1049.12H1553.29V1017.39H1574.19V964.768H1616V1017.39H1649.86V1049.12H1616V1127.56C1615.95 1132.09 1617.63 1136.47 1620.69 1139.82C1623.75 1142.47 1627.71 1143.88 1631.76 1143.77C1635.94 1143.76 1640.09 1143.03 1644.03 1141.63C1647.49 1140.45 1650.87 1139.01 1654.11 1137.31L1662.75 1169.84Z" fill="#41B1E6"></path><path d="M1833.59 1178.15H1792.15V1088.37C1792.15 1075.41 1790.01 1066.03 1785.65 1060.27C1783.43 1057.34 1780.54 1054.99 1777.21 1053.42C1773.89 1051.85 1770.23 1051.11 1766.56 1051.26C1760.65 1051.37 1754.85 1052.85 1749.61 1055.58C1743.91 1058.48 1738.8 1062.4 1734.5 1067.14C1730.06 1072.12 1726.52 1077.85 1724.05 1084.05V1177.78H1682.95V1017.02H1720.43V1046.94C1724.44 1040.12 1729.86 1034.22 1736.31 1029.65C1743.05 1024.89 1750.45 1021.16 1758.29 1018.57C1766.93 1015.95 1775.92 1014.62 1784.95 1014.62C1793.56 1014.3 1802.11 1016.15 1809.81 1020.01C1816.05 1023.26 1821.19 1028.28 1824.58 1034.45C1827.96 1040.78 1830.39 1047.58 1831.78 1054.62C1833.22 1061.92 1833.95 1069.34 1833.96 1076.78V1178.15H1833.59Z" fill="#41B1E6"></path><path d="M1942.83 1181.03C1930.74 1181.2 1918.73 1178.99 1907.49 1174.53C1897.37 1170.37 1888.18 1164.25 1880.45 1156.51C1873.03 1149.02 1867.25 1140.07 1863.5 1130.21C1859.56 1120.24 1857.61 1109.59 1857.74 1098.86C1857.66 1084.26 1861.25 1069.87 1868.19 1057.02C1875.02 1044.28 1885.25 1033.68 1897.74 1026.4C1911.65 1018.43 1927.5 1014.44 1943.53 1014.88C1959.33 1014.48 1974.92 1018.47 1988.59 1026.4C2000.89 1033.65 2010.97 1044.12 2017.76 1056.69C2024.55 1069.14 2028.04 1083.13 2027.88 1097.31C2027.94 1099.84 2027.82 1102.37 2027.51 1104.88C2027.14 1107.43 2027.14 1109.24 2026.77 1111.01H1901.73C1902.06 1118.7 1904.42 1126.16 1908.56 1132.65C1912.36 1138.56 1917.73 1143.31 1924.07 1146.35C1930.2 1149.51 1937.01 1151.12 1943.9 1151.04C1952.21 1150.97 1960.37 1148.86 1967.68 1144.91C1974.44 1141.4 1979.78 1135.68 1982.82 1128.7L2018.13 1138.41C2014.42 1147 2008.74 1154.59 2001.55 1160.57C1994.02 1167.17 1985.29 1172.26 1975.84 1175.56C1965.25 1179.33 1954.07 1181.18 1942.83 1181.03ZM1900.65 1084.79H1985.34C1984.7 1077.39 1982.36 1070.24 1978.5 1063.89C1974.55 1058.14 1969.38 1053.34 1963.36 1049.82C1956.92 1046.43 1949.74 1044.7 1942.46 1044.79C1935.41 1044.74 1928.46 1046.47 1922.26 1049.82C1916.11 1053.03 1910.99 1057.9 1907.49 1063.89C1903.62 1070.23 1901.28 1077.39 1900.65 1084.79Z" fill="#41B1E6"></path><path d="M2108.24 1181.03C2094.72 1181.13 2081.28 1178.8 2068.58 1174.16C2056.43 1169.88 2045.36 1163 2036.15 1154L2051.29 1126.96C2059.63 1134.26 2069.13 1140.1 2079.4 1144.25C2088.11 1147.75 2097.41 1149.59 2106.8 1149.68C2113.56 1149.94 2120.26 1148.44 2126.26 1145.32C2128.52 1144.1 2130.38 1142.27 2131.65 1140.05C2132.93 1137.82 2133.55 1135.29 2133.46 1132.73C2133.53 1130.97 2133.21 1129.22 2132.53 1127.6C2131.85 1125.98 2130.82 1124.53 2129.51 1123.35C2126.06 1120.79 2122.13 1118.95 2117.95 1117.95C2113.03 1116.53 2106.87 1114.72 2099.49 1112.52C2089.23 1109.66 2079.22 1105.95 2069.57 1101.45C2062.4 1098.48 2056.17 1093.62 2051.55 1087.38C2047.29 1081 2045.15 1073.44 2045.42 1065.77C2045.24 1056 2048.13 1046.41 2053.69 1038.37C2059.57 1030.34 2067.56 1024.1 2076.78 1020.35C2087.73 1015.79 2099.52 1013.57 2111.38 1013.85C2122.54 1013.8 2133.63 1015.63 2144.17 1019.28C2154.79 1022.89 2164.41 1028.94 2172.28 1036.93L2155.33 1063.59C2148.41 1057.67 2140.64 1052.81 2132.28 1049.19C2125.04 1046.37 2117.34 1044.91 2109.57 1044.87C2105.44 1044.78 2101.31 1045.27 2097.31 1046.31C2093.78 1047.1 2090.54 1048.84 2087.93 1051.33C2086.65 1052.6 2085.66 1054.12 2085.03 1055.81C2084.39 1057.49 2084.12 1059.29 2084.24 1061.08C2084.15 1064.39 2085.31 1067.6 2087.49 1070.09C2090.24 1072.73 2093.56 1074.7 2097.2 1075.85C2102.5 1077.98 2107.93 1079.78 2113.45 1081.24C2124.61 1084.16 2135.56 1087.86 2146.2 1092.32C2153.97 1095.3 2160.9 1100.12 2166.41 1106.36C2171.32 1113.01 2173.73 1121.18 2173.24 1129.44C2173.56 1136.6 2172.12 1143.73 2169.04 1150.2C2165.97 1156.67 2161.34 1162.29 2155.58 1166.55C2143.91 1176.67 2128.07 1181.03 2108.24 1181.03Z" fill="#41B1E6"></path><path d="M2260.69 1181.03C2247.17 1181.13 2233.75 1178.8 2221.06 1174.16C2208.9 1169.89 2197.82 1163.01 2188.6 1154L2203.74 1126.96C2212.08 1134.25 2221.58 1140.09 2231.85 1144.25C2240.56 1147.75 2249.85 1149.59 2259.25 1149.68C2266 1149.94 2272.71 1148.44 2278.71 1145.32C2281 1144.12 2282.9 1142.31 2284.21 1140.08C2285.51 1137.85 2286.17 1135.31 2286.1 1132.73C2286.16 1130.97 2285.84 1129.22 2285.16 1127.6C2284.48 1125.98 2283.45 1124.53 2282.14 1123.35C2278.71 1120.79 2274.79 1118.95 2270.62 1117.95C2265.55 1116.53 2259.4 1114.72 2252.16 1112.52C2241.9 1109.65 2231.9 1105.95 2222.24 1101.45C2215.07 1098.48 2208.84 1093.62 2204.22 1087.38C2199.95 1081 2197.8 1073.44 2198.09 1065.77C2197.9 1055.99 2200.81 1046.4 2206.4 1038.37C2212.25 1030.33 2220.23 1024.09 2229.44 1020.35C2240.4 1015.79 2252.19 1013.57 2264.05 1013.85C2275.21 1013.8 2286.29 1015.63 2296.84 1019.28C2307.46 1022.89 2317.08 1028.94 2324.95 1036.93L2308.03 1063.59C2301.09 1057.68 2293.31 1052.82 2284.95 1049.19C2277.71 1046.37 2270.01 1044.91 2262.24 1044.87C2258.1 1044.78 2253.98 1045.27 2249.98 1046.31C2246.46 1047.09 2243.23 1048.83 2240.63 1051.33C2239.35 1052.59 2238.36 1054.12 2237.72 1055.8C2237.08 1057.48 2236.82 1059.29 2236.94 1061.08C2236.86 1064.39 2238.02 1067.6 2240.19 1070.09C2242.93 1072.73 2246.24 1074.7 2249.87 1075.85C2255.16 1077.97 2260.57 1079.77 2266.08 1081.24C2277.27 1084.15 2288.24 1087.86 2298.91 1092.32C2306.67 1095.3 2313.59 1100.12 2319.07 1106.36C2324.05 1112.98 2326.49 1121.17 2325.94 1129.44C2326.27 1136.61 2324.83 1143.75 2321.73 1150.24C2318.64 1156.72 2314 1162.33 2308.22 1166.59C2295.99 1176.67 2280.52 1181.03 2260.69 1181.03Z" fill="#41B1E6"></path><path d="M1709.95 3.73086L1664.63 162.864C1664.41 163.628 1664.37 164.436 1664.51 165.22C1664.65 166.005 1664.98 166.744 1665.46 167.38C1665.94 168.016 1666.56 168.53 1667.28 168.881C1668 169.232 1668.78 169.41 1669.58 169.4H1680.4C1681.17 169.398 1681.94 169.225 1682.63 168.893C1683.33 168.561 1683.94 168.078 1684.43 167.48L1812.39 8.56873C1812.99 7.80883 1813.37 6.89471 1813.48 5.9308C1813.59 4.9669 1813.42 3.99209 1813 3.11774C1812.58 2.24339 1811.92 1.50477 1811.1 0.986269C1810.29 0.467766 1809.34 0.19029 1808.37 0.185547H1714.71C1713.65 0.209989 1712.62 0.564268 1711.76 1.19939C1710.91 1.83452 1710.28 2.71911 1709.95 3.73086Z" fill="white"></path></g><defs><clipPath id="clip0_522_571"><rect width="3892.31" height="1258.88" fill="white"></rect></clipPath></defs></svg> 